<svg width="21" height="19" viewBox="0 0 21 19" fill="none" xmlns="http://www.w3.org/2000/svg">
<path d="M9.51904 0.92705C9.81839 0.00573897 11.1218 0.00573993 11.4212 0.927051L13.0453 5.92564C13.1792 6.33766 13.5631 6.61662 13.9963 6.61662H19.2522C20.2209 6.61662 20.6237 7.85624 19.84 8.42564L15.5879 11.5149C15.2374 11.7696 15.0908 12.221 15.2246 12.633L16.8488 17.6316C17.1481 18.5529 16.0936 19.319 15.3099 18.7496L11.0579 15.6603C10.7074 15.4057 10.2328 15.4057 9.88231 15.6603L5.63025 18.7496C4.84654 19.319 3.79206 18.5529 4.09141 17.6316L5.71555 12.633C5.84943 12.221 5.70277 11.7696 5.35228 11.5149L1.10023 8.42564C0.316513 7.85624 0.71929 6.61662 1.68801 6.61662H6.94384C7.37707 6.61662 7.76102 6.33766 7.8949 5.92564L9.51904 0.92705Z" fill="black"/>
</svg>
